# xmcd
#
# Track frame offsets: 
#        150
#        11422
#        20203
#        30895
#        40535
#        49818
#        61918
#        74389
#        85545
#
# Disc length: 1293 seconds
#
# Revision: 0
# Processed by: cddbd v1.5.2PL0 Copyright (c) Steve Scherf et al.
# Submitted via: ExactAudioCopy v1.0b1
#
DISCID=62050b09
DTITLE=Chet Atkins - Finger Pickin' Good
DYEAR=1972
DGENRE=Country
TTITLE0=Wheels
TTITLE1=Levee Walking
TTITLE2=Cattle Call
TTITLE3=Old Joe Clark
TTITLE4=Yakety Axe
TTITLE5=How's The World Treating You
TTITLE6=Wimoweh
TTITLE7=Blowin' In The Wind
TTITLE8=Back To Old Smoky Mountain
EXTD=
EXTT0=
EXTT1=
EXTT2=
EXTT3=
EXTT4=
EXTT5=
EXTT6=
EXTT7=
EXTT8=
PLAYORDER=
